<?xml version="1.0" standalone="no"?>
<!DOCTYPE svg PUBLIC "-//W3C//DTD SVG 20010904//EN"
 "http://www.w3.org/TR/2001/REC-SVG-20010904/DTD/svg10.dtd">
<svg version="1.0" xmlns="http://www.w3.org/2000/svg"
 width="128.000000pt" height="459.900000pt" viewBox="0 0 128.000000 459.900000"
 preserveAspectRatio="xMidYMid meet">
<metadata>
Created by potrace 1.16, written by Peter Selinger 2001-2019
</metadata>
<g transform="translate(0.000000,459.900000) scale(0.010000,-0.010000)"
fill="#000000" stroke="none">
<path d="M11990 45579 c-1134 -32 -2101 -129 -2895 -290 -2332 -471 -3603
-1527 -4219 -3504 -240 -768 -386 -1709 -446 -2860 -27 -527 -30 -999 -30
-5390 0 -4922 -3 -5241 -50 -5895 -61 -831 -190 -1477 -402 -2010 -424 -1064
-1238 -1778 -2623 -2300 -381 -143 -729 -250 -1277 -391 l-38 -10 0 -59 0 -59
38 -10 c1470 -379 2421 -835 3078 -1478 783 -765 1145 -1787 1239 -3493 8
-151 17 -311 20 -355 3 -44 10 -2456 14 -5360 6 -3657 11 -5334 19 -5455 19
-301 32 -479 48 -655 251 -2818 1244 -4405 3266 -5221 1064 -429 2448 -663
4348 -733 l225 -9 57 56 c32 31 56 58 53 60 -2 2 -106 21 -230 42 -2007 339
-3306 1011 -4102 2121 -432 603 -722 1337 -897 2269 -83 442 -129 850 -178
1575 -8 122 -13 1652 -18 5410 -7 5207 -8 5347 -40 5900 -72 1218 -265 2084
-625 2800 -282 561 -654 1006 -1160 1385 -633 475 -1501 849 -2561 1106 -104
25 -197 47 -206 50 -14 4 -18 16 -18 54 0 56 -25 44 200 100 744 186 1454 457
1980 758 1234 706 1914 1694 2214 3221 105 529 158 1046 198 1906 8 176 13
1748 18 5335 5 3678 10 5132 18 5255 75 1103 197 1809 433 2520 161 485 415
996 680 1368 242 338 549 659 877 914 787 614 1882 1021 3212 1193 241 31 224
21 154 91 -43 44 -65 59 -84 57 -14 0 -144 -5 -290 -9z"/>
</g>
</svg>
