<?xml version="1.0" standalone="no"?>
<!DOCTYPE svg PUBLIC "-//W3C//DTD SVG 20010904//EN"
 "http://www.w3.org/TR/2001/REC-SVG-20010904/DTD/svg10.dtd">
<svg version="1.0" xmlns="http://www.w3.org/2000/svg"
 width="128.000000pt" height="459.9000000pt" viewBox="0 0 128.000000 459.9000000"
 preserveAspectRatio="xMidYMid meet">
<metadata>
Created by potrace 1.16, written by Peter Selinger 2001-2019
</metadata>
<g transform="translate(0.000000,459.900000) scale(0.010000,-0.010000)"
fill="#000000" stroke="none">
<path d="M210 45775 c-29 -30 -52 -56 -49 -59 2 -2 92 -16 199 -30 1397 -188
2453 -586 3273 -1237 161 -128 445 -403 582 -564 804 -946 1231 -2243 1345
-4085 27 -444 30 -884 30 -5385 0 -4645 3 -5104 35 -5690 97 -1772 446 -2894
1168 -3755 130 -156 394 -414 552 -542 665 -534 1492 -913 2650 -1213 l200
-52 3 -49 3 -50 -183 -43 c-217 -51 -632 -169 -843 -239 -1340 -444 -2229
-1082 -2777 -1995 -463 -770 -701 -1749 -778 -3197 -26 -504 -30 -1118 -30
-5730 0 -4609 -3 -5099 -30 -5565 -115 -1978 -567 -3279 -1457 -4195 -348
-359 -724 -634 -1213 -888 -666 -346 -1556 -617 -2555 -778 -93 -15 -172 -29
-174 -31 -3 -2 20 -29 50 -59 l54 -56 205 6 c1358 43 2547 193 3475 438 1344
354 2313 951 2978 1834 725 963 1119 2313 1227 4204 27 474 30 1031 30 5660 0
5205 1 5311 56 5990 146 1826 673 2875 1825 3633 590 389 1419 725 2397 973
l113 29 -3 59 -3 59 -203 53 c-1383 363 -2330 830 -2957 1459 -759 760 -1108
1781 -1195 3490 -5 116 -13 242 -16 280 -3 39 -9 2356 -13 5150 -6 3602 -11
5145 -19 5305 -54 1045 -125 1682 -263 2348 -217 1049 -563 1846 -1087 2504
-135 170 -448 483 -620 620 -994 793 -2378 1222 -4457 1382 -379 30 -1150 66
-1405 66 l-66 0 -54 -55z"/>
</g>
</svg>
